<?xml version="1.0" standalone="no"?>
<!DOCTYPE svg PUBLIC "-//W3C//DTD SVG 20010904//EN"
 "http://www.w3.org/TR/2001/REC-SVG-20010904/DTD/svg10.dtd">
<svg version="1.0" xmlns="http://www.w3.org/2000/svg"
 width="500.000000pt" height="500.000000pt" viewBox="0 0 500.000000 500.000000"
 preserveAspectRatio="xMidYMid meet">

<g transform="translate(0.000000,500.000000) scale(0.100000,-0.100000)"
fill="#000000" stroke="none">
<path d="M1940 3229 c0 -20 20 -29 61 -29 41 0 83 -23 97 -55 8 -18 12 -104
12 -280 l0 -255 99 0 99 0 4 258 c3 225 5 261 20 285 27 41 79 49 273 45 159
-3 173 -5 215 -28 59 -33 93 -99 111 -215 11 -79 14 -85 36 -85 l23 0 0 144
c0 79 3 163 6 187 l6 44 -531 1 c-493 0 -531 -1 -531 -17z"/>
<path d="M2650 2807 c0 -11 -30 -161 -35 -179 -6 -15 -1 -18 34 -18 l41 0 2
70 c1 39 2 82 2 98 1 21 -4 28 -21 30 -13 2 -23 1 -23 -1z"/>
<path d="M2108 2554 c-11 -11 -10 -52 2 -75 6 -11 21 -19 35 -19 27 0 45 25
45 64 0 41 -18 40 -22 -1 -2 -30 -7 -38 -23 -38 -16 0 -21 8 -25 38 -3 22 -8
35 -12 31z"/>
<path d="M2322 2544 c-25 -17 -29 -56 -8 -74 18 -15 58 -10 64 8 3 11 0 12
-16 3 -15 -8 -23 -7 -32 4 -20 24 -8 50 23 50 30 -1 36 9 11 19 -20 8 -16 9
-42 -10z"/>
<path d="M2680 2548 c0 -5 7 -8 15 -8 11 0 15 -11 15 -40 0 -22 5 -40 10 -40
6 0 10 18 10 39 0 30 4 41 18 43 9 3 -2 6 -25 9 -24 2 -43 1 -43 -3z"/>
<path d="M1720 2505 l0 -45 38 1 c31 1 33 2 13 8 -31 8 -40 31 -12 31 12 0 21
5 21 10 0 6 -9 10 -20 10 -30 0 -24 18 8 23 22 3 20 4 -10 6 l-38 1 0 -45z"/>
<path d="M1900 2505 c0 -43 1 -45 30 -45 39 0 67 38 50 69 -8 15 -21 21 -45
21 -35 0 -35 0 -35 -45z m60 20 c16 -20 5 -45 -20 -45 -16 0 -20 7 -20 30 0
33 19 40 40 15z"/>
<path d="M2506 2509 c-9 -23 -14 -44 -10 -48 4 -3 9 0 11 7 6 15 35 16 51 0
20 -20 22 -3 5 40 -9 23 -22 42 -28 42 -7 0 -20 -19 -29 -41z m34 1 c0 -5 -5
-10 -11 -10 -5 0 -7 5 -4 10 3 6 8 10 11 10 2 0 4 -4 4 -10z"/>
<path d="M2870 2505 c0 -44 1 -45 33 -44 29 1 29 2 8 8 -35 9 -39 31 -6 31 15
0 24 4 20 10 -3 6 -15 10 -26 10 -29 0 -23 18 9 23 25 4 25 4 -5 6 -33 1 -33
0 -33 -44z"/>
<path d="M3040 2505 c0 -25 5 -45 10 -45 6 0 10 9 10 20 0 14 7 20 23 21 l22
0 -22 9 c-13 5 -23 14 -23 19 0 5 10 12 23 14 16 3 13 5 -10 6 -33 1 -33 0
-33 -44z"/>
<path d="M3210 2541 c0 -6 4 -13 10 -16 5 -3 14 -20 19 -38 7 -26 9 -27 10 -9
1 12 8 34 17 47 9 14 12 25 6 25 -5 0 -13 -8 -17 -17 -6 -17 -7 -17 -19 0 -14
19 -26 22 -26 8z"/>
<path d="M2108 2119 l-3 -271 -24 -19 c-24 -19 -34 -23 -103 -34 -28 -4 -38
-11 -38 -24 0 -17 27 -18 551 -17 l552 1 -7 74 c-3 41 -6 134 -6 208 l0 133
-24 0 c-21 0 -24 -5 -30 -61 -11 -92 -43 -185 -79 -226 -57 -65 -98 -76 -296
-81 -194 -5 -241 3 -269 45 -15 24 -17 60 -20 285 l-4 258 -98 0 -99 0 -3
-271z"/>
<path d="M2625 2370 c3 -11 12 -53 18 -92 11 -63 15 -73 35 -76 21 -3 22 0 22
70 0 106 -5 118 -47 118 -30 0 -34 -3 -28 -20z"/>
</g>
</svg>
